<?xml version="1.0" encoding="iso-8859-1"?>
<!-- Uploaded to: SVG Repo, www.svgrepo.com, Generator: SVG Repo Mixer Tools -->
<svg height="800px" width="800px" version="1.1" id="Layer_1" xmlns="http://www.w3.org/2000/svg" xmlns:xlink="http://www.w3.org/1999/xlink" 
	 viewBox="0 0 392.533 392.533" xml:space="preserve">
<path style="fill:#FFFFFF;" d="M191.16,72.792c-45.188,2.457-82.23,39.887-84.299,85.139c-1.099,23.661,7.046,46.416,22.949,64
	c24.178,26.764,38.141,59.604,39.952,93.22h52.945c1.681-34.327,15.386-66.844,39.046-92.186
	c15.451-16.614,24.048-38.271,24.048-60.832C285.737,111.127,242.877,69.818,191.16,72.792z"/>
<path style="fill:#FFC10D;" d="M192.388,94.578c-34.133,1.939-62.125,30.125-63.741,64.388c-0.84,17.907,5.301,35.103,17.325,48.356
	c22.562,25.018,37.43,54.756,43.119,85.98h14.158c5.56-31.677,20.17-61.285,42.473-85.204
	c11.636-12.541,18.166-28.897,18.166-45.964C263.952,124.832,233.891,94.578,192.388,94.578z"/>
<g>
	<path style="fill:#194F82;" d="M196.267,38.4c6.012,0,10.925-4.848,10.925-10.925V10.925C207.192,4.913,202.343,0,196.267,0
		c-6.012,0-10.925,4.848-10.925,10.925V27.41C185.341,33.422,190.255,38.4,196.267,38.4z"/>
	<path style="fill:#194F82;" d="M61.673,151.208H45.123c-6.012,0-10.925,4.848-10.925,10.925c0,6.012,4.848,10.925,10.925,10.925
		h16.485c6.012,0,10.925-4.848,10.925-10.925C72.469,156.057,67.685,151.208,61.673,151.208z"/>
	<path style="fill:#194F82;" d="M347.41,151.208h-16.485c-6.012,0-10.925,4.848-10.925,10.925c0,6.012,4.849,10.925,10.925,10.925
		h16.485c6.012,0,10.925-4.848,10.925-10.925S353.422,151.208,347.41,151.208z"/>
	<path style="fill:#194F82;" d="M93.35,249.6l-11.636,11.636c-4.267,4.267-4.267,11.119,0,15.451c4.267,4.267,11.119,4.267,15.451,0
		l11.636-11.636c4.267-4.267,4.267-11.119,0-15.451C104.533,245.269,97.616,245.333,93.35,249.6z"/>
	<path style="fill:#194F82;" d="M295.434,47.515l-11.636,11.636c-4.267,4.267-4.267,11.119,0,15.45
		c4.267,4.267,11.119,4.267,15.451,0l11.636-11.636c4.267-4.267,4.267-11.119,0-15.451
		C306.618,43.248,299.636,43.248,295.434,47.515z"/>
	<path style="fill:#194F82;" d="M299.184,249.6c-4.267-4.267-11.119-4.267-15.451,0c-4.267,4.267-4.267,11.119,0,15.451
		l11.636,11.636c4.267,4.267,11.119,4.267,15.451,0c4.267-4.267,4.267-11.119,0-15.451L299.184,249.6z"/>
	<path style="fill:#194F82;" d="M93.35,74.602c4.267,4.267,11.119,4.267,15.451,0c4.267-4.267,4.267-11.119,0-15.45L97.164,47.515
		c-4.267-4.267-11.119-4.267-15.451,0c-4.267,4.267-4.267,11.119,0,15.451L93.35,74.602z"/>
</g>
<path style="fill:#56ACE0;" d="M222.513,363.249v-26.246h-52.622v26.246h7.887c4.202,0,7.887,2.327,9.762,5.947
	c1.293,0.711,4.396,1.616,8.727,1.616c4.719,0,7.564-1.099,8.727-1.616c1.875-3.62,5.56-5.947,9.762-5.947H222.513z"/>
<g>
	<path style="fill:#194F82;" d="M307.523,162.069c0-63.418-53.463-114.683-117.592-111.127
		c-56.178,3.103-102.335,49.584-104.857,105.891c-1.422,29.414,8.792,57.729,28.509,79.58c22.238,24.63,34.521,55.143,34.521,85.851
		v51.782c0,6.012,4.848,10.925,10.925,10.925h13.382c5.236,4.784,13.77,7.564,23.855,7.564c10.15,0,18.618-2.844,23.855-7.564
		h13.382c6.012,0,10.925-4.848,10.925-10.925v-51.782c0-31.418,11.83-61.414,33.293-84.558
		C296.921,217.147,307.523,190.255,307.523,162.069z M204.994,369.131c-1.164,0.646-4.073,1.616-8.727,1.616
		c-4.331,0-7.499-1.034-8.727-1.616c-1.875-3.62-5.56-5.948-9.762-5.948h-7.887v-26.246h52.622v26.246h-7.822
		C210.554,363.249,206.869,365.576,204.994,369.131z M222.772,315.087h-52.945c-1.745-33.616-15.838-66.457-39.952-93.22
		c-15.903-17.648-24.048-40.339-22.95-64c2.069-45.188,39.111-82.618,84.299-85.139c51.717-2.909,94.578,38.335,94.578,89.341
		c0,22.626-8.469,44.283-24.048,60.832C238.158,248.242,224.388,280.76,222.772,315.087z"/>
	<path style="fill:#194F82;" d="M217.277,167.564H191.16l19.911-52.234c2.133-5.624-0.711-11.895-6.335-14.093
		c-5.624-2.133-11.895,0.711-14.093,6.335l-25.6,66.974c-2.392,6.271,1.745,14.675,10.214,14.739h26.376l-15.709,43.055
		c-2.069,5.624,0.84,11.895,6.465,13.964c5.172,1.875,11.507-0.646,13.964-6.465l21.01-57.729
		C230.141,174.481,225.099,168.081,217.277,167.564z"/>
</g>
</svg>