<?xml version="1.0" encoding="iso-8859-1"?>
<!-- Uploaded to: SVG Repo, www.svgrepo.com, Generator: SVG Repo Mixer Tools -->
<svg version="1.1" id="Layer_1" xmlns="http://www.w3.org/2000/svg" xmlns:xlink="http://www.w3.org/1999/xlink" 
	 viewBox="0 0 392.598 392.598" xml:space="preserve">
<path style="fill:#FFFFFF;" d="M274.457,148.234c0.194,17.131-5.236,33.358-15.515,46.933c-23.984,32-36.784,68.331-36.784,104.921
	v1.164h-51.911c-0.065-37.107-12.929-73.956-37.107-106.537c-12.735-15.386-17.455-32.065-15.321-49.842
	c5.624-45.834,39.822-70.917,74.343-74.925C237.026,67.879,274.457,103.693,274.457,148.234z"/>
<rect x="170.311" y="323.038" style="fill:#FFC10D;" width="51.846" height="47.774"/>
<path style="fill:#56ACE0;" d="M196.299,91.604c-0.905,0-1.939,0-2.844,0.065c-17.842,0.84-33.681,10.279-43.442,24.178h42.408
	c6.012,0,10.925,4.848,10.925,10.925s-4.848,10.925-10.925,10.925h-51.588c-0.453,2.651-0.84,5.301-1.034,8.016
	c-0.259,4.719,0.129,9.244,1.099,13.77h25.988c6.012,0,10.925,4.848,10.925,10.925c0,6.012-4.848,10.925-10.925,10.925h-16.356
	c0.065,0.129,0.129,0.323,0.323,0.388c22.238,30.061,35.943,63.418,40.016,97.681h10.796c3.943-34.263,17.519-67.556,39.952-97.358
	c7.37-9.826,11.313-21.463,11.313-33.875C252.865,117.075,227.523,91.604,196.299,91.604z"/>
<g>
	<path style="fill:#194F82;" d="M196.299,36.137c6.012,0,10.925-4.848,10.925-10.925V10.925C207.224,4.913,202.376,0,196.299,0
		c-6.012,0-10.925,4.848-10.925,10.925v14.287C185.374,31.289,190.287,36.137,196.299,36.137z"/>
	<path style="fill:#194F82;" d="M333.543,137.309h-14.287c-6.012,0-10.925,4.848-10.925,10.925c0,6.012,4.849,10.925,10.925,10.925
		h14.287c6.012,0,10.925-4.848,10.925-10.925S339.556,137.309,333.543,137.309z"/>
	<path style="fill:#194F82;" d="M73.277,137.309H59.055c-6.012,0-10.925,4.848-10.925,10.925c0,6.012,4.848,10.925,10.925,10.925
		h14.287c6.012,0,10.925-4.848,10.925-10.925C84.202,142.158,79.289,137.309,73.277,137.309z"/>
	<path style="fill:#194F82;" d="M285.64,43.507l-10.15,10.149c-4.267,4.267-4.267,11.119,0,15.45c4.267,4.267,11.119,4.267,15.451,0
		l10.15-10.149c4.267-4.267,4.267-11.119,0-15.451C296.824,39.176,289.907,39.176,285.64,43.507z"/>
	<path style="fill:#194F82;" d="M101.657,227.491l-10.085,10.02c-4.267,4.267-4.267,11.119,0,15.451
		c4.267,4.331,11.119,4.267,15.451,0l10.02-10.02c4.267-4.267,4.267-11.119,0-15.451
		C112.776,223.224,105.859,223.224,101.657,227.491z"/>
	<path style="fill:#194F82;" d="M290.941,227.491c-4.267-4.267-11.119-4.267-15.451,0c-4.267,4.267-4.267,11.119,0,15.451
		l10.15,10.149c4.267,4.267,11.119,4.267,15.451,0s4.267-11.119,0-15.451L290.941,227.491z"/>
	<path style="fill:#194F82;" d="M101.657,68.978c4.267,4.267,11.119,4.267,15.451,0c4.267-4.267,4.267-11.119,0-15.451l-10.02-10.02
		c-4.267-4.267-11.119-4.267-15.451,0c-4.267,4.267-4.267,11.119,0,15.451L101.657,68.978z"/>
	<path style="fill:#194F82;" d="M191.257,48.097c-51.2,2.457-92.962,44.606-95.095,95.806c-1.034,23.208,5.818,45.188,19.523,63.741
		c21.463,28.962,32.84,61.414,32.84,93.996v80.032c0,6.012,4.848,10.925,10.925,10.925h73.632c6.012,0,10.925-4.848,10.925-10.925
		l0.065-81.584c0-31.935,11.184-63.677,32.388-91.798c13.123-17.455,20.04-38.141,20.04-60.057
		C296.436,91.345,248.921,45.253,191.257,48.097z M222.093,370.812h-51.846v-47.774h51.846L222.093,370.812L222.093,370.812z
		 M258.941,195.168c-23.984,32-36.784,68.331-36.784,104.921v1.164h-51.911c-0.065-37.107-12.929-73.956-37.107-106.537
		c-12.735-15.386-17.455-32.065-15.321-49.842c5.624-45.834,39.822-70.917,74.343-74.925c44.865-2.069,82.295,33.745,82.295,78.287
		C274.651,165.366,269.22,181.592,258.941,195.168z"/>
</g>
</svg>